<svg xmlns="http://www.w3.org/2000/svg" width="22" height="22"><path d="M17.74 8.52h-2.13v4.96h2.13a4.26 4.26 0 1 1-4.26 4.26v-2.13H8.52v2.13a4.26 4.26 0 1 1-4.26-4.26h2.13V8.52H4.26a4.26 4.26 0 1 1 4.26-4.26v2.13h4.96V4.26a4.26 4.26 0 1 1 4.26 4.26zm-2.13 9.22a2.13 2.13 0 1 0 2.49-2.09v-.04h-2.49v2.13zM6.39 4.26a2.13 2.13 0 1 0-2.13 2.13h2.13V4.26zM2.13 17.74a2.13 2.13 0 0 0 4.26 0v-2.13H4.26a2.132 2.132 0 0 0-2.13 2.13zm11.35-9.22H8.52v4.96h4.96V8.52zm4.26-6.39a2.132 2.132 0 0 0-2.13 2.13v2.13h2.13a2.13 2.13 0 0 0 0-4.26z" fill-rule="evenodd"/></svg>