<svg xmlns="http://www.w3.org/2000/svg" width="24" height="22"><path data-name="SPEECH BUBBLES" d="M21.271 9.32c-.386.21-.43 1.85 1.743 2.84a5.839 5.839 0 0 1-5.027-1.9 11.94 11.94 0 0 1-1.492.2c-4.189 0-6.743-2.31-6.743-5.21S12.306 0 16.495 0s7.507 2.35 7.507 5.25a4.8 4.8 0 0 1-2.731 4.07zM8.331 5.76c.189 3.21 3.127 5.9 7.638 6.17a8.216 8.216 0 0 0 1.493-.17v-.01l.133-.03a5.669 5.669 0 0 0 3.894 1.55c-.952 3.51-4.581 6.09-10.037 6.09a16.8 16.8 0 0 1-2.277-.32c-2.978 3.62-7.673 2.9-7.673 2.9 3.316-1.5 3.249-4 2.66-4.34-2.6-1.47-4.17-3.7-4.17-6.21 0-3.77 3.684-6.93 8.73-7.78a5.2 5.2 0 0 0-.391 2.15z" fill-rule="evenodd"/></svg>