<svg xmlns="http://www.w3.org/2000/svg" width="35" height="60" viewBox="0 0 35 60">
  <metadata><?xpacket begin="﻿" id="W5M0MpCehiHzreSzNTczkc9d"?>
<x:xmpmeta xmlns:x="adobe:ns:meta/" x:xmptk="Adobe XMP Core 5.6-c138 79.159824, 2016/09/14-01:09:01        ">
   <rdf:RDF xmlns:rdf="http://www.w3.org/1999/02/22-rdf-syntax-ns#">
      <rdf:Description rdf:about=""/>
   </rdf:RDF>
</x:xmpmeta>
                                                                                                    
                                                                                                    
                                                                                                    
                                                                                                    
                                                                                                    
                                                                                                    
                                                                                                    
                                                                                                    
                                                                                                    
                                                                                                    
                                                                                                    
                                                                                                    
                                                                                                    
                                                                                                    
                                                                                                    
                                                                                                    
                                                                                                    
                                                                                                    
                                                                                                    
                                                                                                    
                           
<?xpacket end="w"?></metadata>
<defs>
    <style>
      .cls-1 {
        fill: #fff;
        fill-rule: evenodd;
      }
    </style>
  </defs>
  <path id="ARROW_Right" data-name="ARROW / Right" class="cls-1" d="M1531.53,1774.54l22.92,22.45-23.22,22.75h0a4.222,4.222,0,0,0-1.23,2.97,4.335,4.335,0,0,0,4.38,4.29,4.43,4.43,0,0,0,3.03-1.2h0l26.25-25.71v-0.01A4.206,4.206,0,0,0,1565,1797v-0.02a4.206,4.206,0,0,0-1.34-3.08h0l-26.25-25.72-0.01.01a4.378,4.378,0,0,0-3.02-1.19,4.335,4.335,0,0,0-4.38,4.29A4.228,4.228,0,0,0,1531.53,1774.54Z" transform="translate(-1530 -1767)"/>
</svg>
