<svg xmlns="http://www.w3.org/2000/svg" width="35" height="60" viewBox="0 0 35 60">
  <metadata><?xpacket begin="﻿" id="W5M0MpCehiHzreSzNTczkc9d"?>
<x:xmpmeta xmlns:x="adobe:ns:meta/" x:xmptk="Adobe XMP Core 5.6-c138 79.159824, 2016/09/14-01:09:01        ">
   <rdf:RDF xmlns:rdf="http://www.w3.org/1999/02/22-rdf-syntax-ns#">
      <rdf:Description rdf:about=""/>
   </rdf:RDF>
</x:xmpmeta>
                                                                                                    
                                                                                                    
                                                                                                    
                                                                                                    
                                                                                                    
                                                                                                    
                                                                                                    
                                                                                                    
                                                                                                    
                                                                                                    
                                                                                                    
                                                                                                    
                                                                                                    
                                                                                                    
                                                                                                    
                                                                                                    
                                                                                                    
                                                                                                    
                                                                                                    
                                                                                                    
                           
<?xpacket end="w"?></metadata>
<defs>
    <style>
      .cls-1 {
        fill: #fff;
        fill-rule: evenodd;
      }
    </style>
  </defs>
  <path id="ARROW_Left" data-name="ARROW / Left" class="cls-1" d="M72.475,1774.54l-22.922,22.45,23.222,22.75h0A4.224,4.224,0,0,1,74,1822.71a4.333,4.333,0,0,1-4.375,4.29,4.422,4.422,0,0,1-3.036-1.2h0l-26.25-25.71v-0.01A4.224,4.224,0,0,1,39,1797v-0.02a4.224,4.224,0,0,1,1.339-3.08h0l26.25-25.72,0.011,0.01a4.4,4.4,0,0,1,3.026-1.19A4.333,4.333,0,0,1,74,1771.29,4.245,4.245,0,0,1,72.475,1774.54Z" transform="translate(-39 -1767)"/>
</svg>
