<svg xmlns="http://www.w3.org/2000/svg" width="22" height="22" viewBox="0 0 22 22">
  <metadata><?xpacket begin="﻿" id="W5M0MpCehiHzreSzNTczkc9d"?>
<x:xmpmeta xmlns:x="adobe:ns:meta/" x:xmptk="Adobe XMP Core 5.6-c138 79.159824, 2016/09/14-01:09:01        ">
   <rdf:RDF xmlns:rdf="http://www.w3.org/1999/02/22-rdf-syntax-ns#">
      <rdf:Description rdf:about=""/>
   </rdf:RDF>
</x:xmpmeta>
                                                                                                    
                                                                                                    
                                                                                                    
                                                                                                    
                                                                                                    
                                                                                                    
                                                                                                    
                                                                                                    
                                                                                                    
                                                                                                    
                                                                                                    
                                                                                                    
                                                                                                    
                                                                                                    
                                                                                                    
                                                                                                    
                                                                                                    
                                                                                                    
                                                                                                    
                                                                                                    
                           
<?xpacket end="w"?></metadata>
<defs>
    <style>
      .cls-1 {
        fill-rule: evenodd;
      }
    </style>
  </defs>
  <path id="COMMAND" class="cls-1" d="M1132.74,1078.52h-2.13v4.96h2.13a4.26,4.26,0,1,1-4.26,4.26v-2.13h-4.96v2.13a4.26,4.26,0,1,1-4.26-4.26h2.13v-4.96h-2.13a4.26,4.26,0,1,1,4.26-4.26v2.13h4.96v-2.13A4.26,4.26,0,1,1,1132.74,1078.52Zm-2.13,9.22a2.13,2.13,0,1,0,2.49-2.09v-0.04h-2.49v2.13Zm-9.22-13.48a2.13,2.13,0,1,0-2.13,2.13h2.13v-2.13Zm-4.26,13.48a2.13,2.13,0,0,0,4.26,0v-2.13h-2.13A2.132,2.132,0,0,0,1117.13,1087.74Zm11.35-9.22h-4.96v4.96h4.96v-4.96Zm4.26-6.39a2.132,2.132,0,0,0-2.13,2.13v2.13h2.13A2.13,2.13,0,0,0,1132.74,1072.13Z" transform="translate(-1115 -1070)"/>
</svg>
