<svg xmlns="http://www.w3.org/2000/svg" width="24" height="22" viewBox="0 0 24 22">
  <metadata><?xpacket begin="﻿" id="W5M0MpCehiHzreSzNTczkc9d"?>
<x:xmpmeta xmlns:x="adobe:ns:meta/" x:xmptk="Adobe XMP Core 5.6-c138 79.159824, 2016/09/14-01:09:01        ">
   <rdf:RDF xmlns:rdf="http://www.w3.org/1999/02/22-rdf-syntax-ns#">
      <rdf:Description rdf:about=""/>
   </rdf:RDF>
</x:xmpmeta>
                                                                                                    
                                                                                                    
                                                                                                    
                                                                                                    
                                                                                                    
                                                                                                    
                                                                                                    
                                                                                                    
                                                                                                    
                                                                                                    
                                                                                                    
                                                                                                    
                                                                                                    
                                                                                                    
                                                                                                    
                                                                                                    
                                                                                                    
                                                                                                    
                                                                                                    
                                                                                                    
                           
<?xpacket end="w"?></metadata>
<defs>
    <style>
      .cls-1 {
        fill-rule: evenodd;
      }
    </style>
  </defs>
  <path id="SPEECH_BUBBLES" data-name="SPEECH BUBBLES" class="cls-1" d="M536.24,1077.26c-0.386.21-.43,1.85,1.743,2.84a5.839,5.839,0,0,1-5.027-1.9,11.94,11.94,0,0,1-1.492.2c-4.189,0-6.743-2.31-6.743-5.21s2.554-5.25,6.743-5.25,7.507,2.35,7.507,5.25A4.8,4.8,0,0,1,536.24,1077.26ZM523.3,1073.7c0.189,3.21,3.127,5.9,7.638,6.17a8.216,8.216,0,0,0,1.493-.17v-0.01l0.133-.03a5.669,5.669,0,0,0,3.894,1.55c-0.952,3.51-4.581,6.09-10.037,6.09a16.8,16.8,0,0,1-2.277-.32c-2.978,3.62-7.673,2.9-7.673,2.9,3.316-1.5,3.249-4,2.66-4.34-2.6-1.47-4.17-3.7-4.17-6.21,0-3.77,3.684-6.93,8.73-7.78A5.2,5.2,0,0,0,523.3,1073.7Z" transform="translate(-514.969 -1067.94)"/>
</svg>
